HIERARCHY
ROOT Root
{
	OFFSET 0.00000 0.00000 0.00000
	CHANNELS 6 Xposition Yposition Zposition Zrotation Xrotation Yrotation
	JOINT Hips
	{
		OFFSET 0 0 0	
		CHANNELS 3 Zrotation Xrotation Yrotation
		JOINT Spine
		{
			OFFSET 0 4 0	
			CHANNELS 3 Zrotation Xrotation Yrotation
			JOINT Spine1
			{
				OFFSET 0 19.4 0	
				CHANNELS 3 Zrotation Xrotation Yrotation
				JOINT Spine2
				{
					OFFSET 0 16.6 0	
					CHANNELS 3 Zrotation Xrotation Yrotation
					JOINT LeftCollar
					{
						OFFSET 0 10 0	
						CHANNELS 3 Zrotation Xrotation Yrotation
						JOINT LeftArm
						{
							OFFSET 15.6 -2 3	
							CHANNELS 3 Zrotation Xrotation Yrotation
							JOINT LeftForeArm
							{
								OFFSET 3.5 -27 -1	
								CHANNELS 3 Zrotation Xrotation Yrotation
								JOINT LeftHand
								{
									OFFSET 1 -27 1	
									CHANNELS 3 Zrotation Xrotation Yrotation
									End Site
									{
										OFFSET 0 -15 0
									}
								}
							}
						}
					}
					JOINT RightCollar
					{
						OFFSET 0 10 0	
						CHANNELS 3 Zrotation Xrotation Yrotation
						JOINT RightArm
						{
							OFFSET -15.6 -2 3	
							CHANNELS 3 Zrotation Xrotation Yrotation
							JOINT RightForeArm
							{
								OFFSET -3.5 -27 -1	
								CHANNELS 3 Zrotation Xrotation Yrotation
								JOINT RightHand
								{
									OFFSET -1 -27 1	
									CHANNELS 3 Zrotation Xrotation Yrotation
									End Site
									{
										OFFSET 0 -15 0
									}
								}
							}
						}
					}
					JOINT Neck
					{
						OFFSET 0 10 0	
						CHANNELS 3 Zrotation Xrotation Yrotation
						JOINT Head
						{
							OFFSET 0 12.7 3	
							CHANNELS 3 Zrotation Xrotation Yrotation
							End Site
							{
								OFFSET 0 12.7 3
							}
						}
					}
				}
			}
		}
	}
	JOINT LeftHip
	{
		OFFSET 0 0 0	
		CHANNELS 3 Zrotation Xrotation Yrotation
		JOINT LeftUpLeg
		{
			OFFSET 8.8 -6 0	
			CHANNELS 3 Zrotation Xrotation Yrotation
			JOINT LeftLeg
			{
				OFFSET 0 -39 2	
				CHANNELS 3 Zrotation Xrotation Yrotation
				JOINT LeftFoot
				{
					OFFSET 0 -43 -2	
					CHANNELS 3 Zrotation Xrotation Yrotation
					JOINT LeftFootFront
					{
						OFFSET 0 -7 8.5	
						CHANNELS 3 Zrotation Xrotation Yrotation
						End Site
						{
							OFFSET 0 -0.5 9
						}
					}
				}
				JOINT LeftHeel
				{
					OFFSET 0 -43 -2	
					CHANNELS 3 Zrotation Xrotation Yrotation
					End Site
					{
						OFFSET 0 -7.5 -5
					}
				}
			}
		}
	}
	JOINT RightHip
	{
		OFFSET 0 0 0	
		CHANNELS 3 Zrotation Xrotation Yrotation
		JOINT RightUpLeg
		{
			OFFSET -8.8 -6 0	
			CHANNELS 3 Zrotation Xrotation Yrotation
			JOINT RightLeg
			{
				OFFSET 0 -39 2	
				CHANNELS 3 Zrotation Xrotation Yrotation
				JOINT RightFoot
				{
					OFFSET 0 -43 -2	
					CHANNELS 3 Zrotation Xrotation Yrotation
					JOINT RightFootFront
					{
						OFFSET 0 -7 8.5	
						CHANNELS 3 Zrotation Xrotation Yrotation
						End Site
						{
							OFFSET 0 -0.5 9
						}
					}
				}
				JOINT RightHeel
				{
					OFFSET 0 -43 -2	
					CHANNELS 3 Zrotation Xrotation Yrotation
					End Site
					{
						OFFSET 0 -7.5 -5
					}
				}
			}
		}
	}
}
MOTION
Frames: 21
Frame Time: 0.025
-2.766 95.686 -0.5082 -0 0 -0 4.6446 7.3114 -10.75 1.0303 2.3392 -2.8689 1.0303 2.3392 -2.8689 0.85751 1.9684 -2.4068 -0 0 -0 6.0064 -7.8314 8.8156 -1.6467 -12.708 -4.0523 -1.19 13.1 -23.297 -0 0 -0 -0.64404 -8.3849 3.6191 -12.201 -17.391 1.9778 -9.1438 11.283 33.185 5.344 -8.3105 0.79356 5.344 -8.3105 0.79355 4.6446 7.3114 -10.75 -2.6871 -11.019 -1.4353 0.66181 4.2518 7.7337 -1.457 -1.0898 2.7295 0.01223 0.0080584 0.003865 -0 0 -0 4.6446 7.3114 -10.75 -3.0316 -13.43 2.8184 1.5502 4.6224 4.9608 -1.4854 0.78946 2.9159 -0.0045353 0.012775 0.0029061 -0 0 -0 
-2.7916 95.712 -0.5387 -0 0 -0 4.8424 7.3287 -11.044 1.0844 2.366 -2.9225 1.0844 2.366 -2.9225 0.90267 1.9912 -2.4517 -0 0 -0 5.9804 -7.8237 9.0437 -1.7749 -12.797 -4.0228 -0.96289 12.966 -23.43 -0 0 -0 -0.73361 -8.4073 3.7479 -12.307 -17.47 1.8744 -9.0631 11.179 33.084 5.2815 -8.3226 0.9351 5.2815 -8.3226 0.9351 4.8424 7.3287 -11.044 -2.7592 -11.19 -1.3961 0.55298 4.4019 7.9301 -1.4267 -1.131 2.7822 0.011538 0.018641 0.0033337 -0 0 -0 4.8424 7.3287 -11.044 -3.1377 -13.506 2.7447 1.5484 4.6026 5.1767 -1.5341 0.83955 3.0528 0.0041517 0.003649 0.0030325 -0 0 -0 
-2.8114 95.743 -0.56542 -0 0 -0 5.0908 7.3212 -11.372 1.1426 2.3935 -2.982 1.1426 2.3935 -2.982 0.95131 2.0146 -2.5014 -0 0 -0 5.9422 -7.8082 9.2925 -1.9364 -12.899 -4.0132 -0.7217 12.854 -23.55 -0 0 -0 -0.84122 -8.4342 3.8691 -12.446 -17.536 1.7381 -8.9988 11.051 32.98 5.1877 -8.3429 1.0517 5.1877 -8.3429 1.0517 5.0908 7.3212 -11.372 -2.8611 -11.381 -1.361 0.39744 4.6335 8.1049 -1.3786 -1.2148 2.8924 -0.00088119 0.0078478 0.0038654 -0 0 -0 5.0908 7.3212 -11.372 -3.2845 -13.59 2.6668 1.543 4.5938 5.4441 -1.5764 0.89198 3.1715 0.012311 -0.016793 0.0030093 -0 0 -0 
-2.8231 95.778 -0.58691 -0 0 -0 5.3971 7.2927 -11.726 1.2023 2.4188 -3.0524 1.2023 2.4188 -3.0524 1.0012 2.0362 -2.5603 -0 0 -0 5.8881 -7.7753 9.5546 -2.1195 -13.023 -4.009 -0.47304 12.764 -23.647 -0 0 -0 -0.96694 -8.4678 3.9915 -12.616 -17.581 1.5653 -8.9559 10.896 32.88 5.0766 -8.3708 1.1569 5.0766 -8.3708 1.1569 5.3971 7.2927 -11.726 -3.0186 -11.595 -1.3502 0.20923 4.9604 8.2262 -1.3228 -1.3838 3.1025 -0.00074016 -0.018454 0.0046454 -0 0 -0 5.3971 7.2927 -11.726 -3.4904 -13.687 2.5908 1.5407 4.5999 5.7789 -1.6077 0.92962 3.2398 0.013505 -0.024452 0.0029839 -0 0 -0 
-2.824 95.818 -0.60293 -0 0 -0 5.7625 7.2515 -12.106 1.2578 2.4383 -3.1309 1.2578 2.4383 -3.1309 1.0475 2.0528 -2.6261 -0 0 -0 5.8173 -7.7203 9.8108 -2.2959 -13.174 -3.9967 -0.24049 12.689 -23.706 -0 0 -0 -1.0992 -8.5031 4.1178 -12.817 -17.607 1.3551 -8.9333 10.714 32.786 4.978 -8.4038 1.2674 4.978 -8.4038 1.2674 5.7625 7.2515 -12.106 -3.2701 -11.856 -1.3873 0.019974 5.405 8.301 -1.2422 -1.6592 3.4224 0.0019492 -0.026272 0.0038629 -0 0 -0 5.7625 7.2515 -12.106 -3.7626 -13.802 2.5372 1.5363 4.6244 6.1472 -1.6226 0.95501 3.2696 0.010197 -0.011533 0.0029986 -0 0 -0 
-2.8116 95.863 -0.61479 -0 0 -0 6.1829 7.2035 -12.516 1.3063 2.4486 -3.2074 1.3063 2.4486 -3.2074 1.088 2.0618 -2.6902 -0 0 -0 5.7253 -7.6464 10.042 -2.4358 -13.345 -3.9758 -0.054772 12.623 -23.71 -0 0 -0 -1.232 -8.527 4.2272 -13.045 -17.619 1.1189 -8.9224 10.513 32.697 4.9102 -8.4457 1.3821 4.9102 -8.4457 1.3821 6.1829 7.2035 -12.516 -3.6368 -12.208 -1.5069 -0.14649 6.0103 8.3775 -1.138 -2.0261 3.8353 -0.0057266 -0.011704 0.0033679 -0 0 -0 6.1829 7.2035 -12.516 -4.1059 -13.933 2.5127 1.5325 4.667 6.4937 -1.6208 0.97585 3.3103 -0.00098709 0.0080223 0.0030476 -0 0 -0 
-2.7838 95.913 -0.62554 -0 0 -0 6.6481 7.1438 -12.952 1.3483 2.4498 -3.2711 1.3483 2.4498 -3.2711 1.1231 2.063 -2.7436 -0 0 -0 5.6068 -7.5582 10.234 -2.5214 -13.528 -3.9525 0.06115 12.566 -23.65 -0 0 -0 -1.3629 -8.5186 4.292 -13.299 -17.625 0.86972 -8.9093 10.302 32.611 4.8708 -8.5018 1.4881 4.8708 -8.5018 1.4881 6.6481 7.1438 -12.952 -4.1049 -12.697 -1.7415 -0.30523 6.8458 8.5125 -1.0234 -2.4825 4.3185 -0.00058658 0.011309 0.0039088 -0 0 -0 6.6481 7.1438 -12.952 -4.5155 -14.073 2.5078 1.5318 4.7399 6.7831 -1.6129 0.98323 3.4048 -0.0027024 0.015268 0.0030581 -0 0 -0 
-2.7398 95.966 -0.63973 -0 0 -0 7.1504 7.0621 -13.406 1.3822 2.4459 -3.3123 1.3822 2.4459 -3.3123 1.1515 2.06 -2.7781 -0 0 -0 5.4625 -7.4655 10.381 -2.5545 -13.718 -3.939 0.10486 12.533 -23.521 -0 0 -0 -1.4831 -8.4676 4.291 -13.588 -17.619 0.61021 -8.8794 10.093 32.533 4.8479 -8.5755 1.5767 4.8479 -8.5755 1.5767 7.1504 7.0621 -13.406 -4.6308 -13.355 -2.1009 -0.52866 7.9796 8.7494 -0.86856 -3.0476 4.8475 0.0080128 0.010843 0.0045958 -0 0 -0 7.1504 7.0621 -13.406 -4.9856 -14.216 2.5263 1.5314 4.8588 6.9859 -1.5887 0.95447 3.5717 -0.011111 0.013308 0.0030632 -0 0 -0 
-2.68 96.023 -0.66333 -0 0 -0 7.6851 6.9546 -13.865 1.4061 2.4425 -3.3225 1.4061 2.4425 -3.3225 1.1715 2.0572 -2.7866 -0 0 -0 5.2946 -7.3821 10.476 -2.5555 -13.919 -3.9382 0.097098 12.552 -23.331 -0 0 -0 -1.5927 -8.3898 4.211 -13.913 -17.572 0.33899 -8.8217 9.8929 32.467 4.8269 -8.6672 1.6463 4.8269 -8.6672 1.6463 7.6851 6.9546 -13.865 -5.1654 -14.199 -2.5784 -0.93759 9.4501 9.0356 -0.60793 -3.7751 5.4866 0.0073931 -0.0039001 0.0038616 -0 0 -0 7.6851 6.9546 -13.865 -5.5319 -14.357 2.5472 1.5356 5.0096 7.134 -1.5423 0.89136 3.7859 -0.025782 0.0069165 0.0030949 -0 0 -0 
-2.6069 96.082 -0.70315 -0 0 -0 8.2521 6.8276 -14.313 1.4135 2.4449 -3.2958 1.4135 2.4449 -3.2958 1.1778 2.0593 -2.7642 -0 0 -0 5.1134 -7.3309 10.521 -2.5504 -14.135 -3.9511 0.069179 12.647 -23.092 -0 0 -0 -1.7016 -8.3035 4.0433 -14.264 -17.465 0.057853 -8.7284 9.7123 32.415 4.8013 -8.7789 1.6976 4.8013 -8.7789 1.6976 8.2521 6.8276 -14.313 -5.6911 -15.236 -3.1846 -1.6386 11.29 9.2495 -0.17373 -4.728 6.3881 -0.0044348 0.0053151 0.0032337 -0 0 -0 8.2521 6.8276 -14.313 -6.177 -14.494 2.4912 1.5503 5.1392 7.3144 -1.4654 0.83516 4.0207 -0.023892 0.0089117 0.0031028 -0 0 -0 
-2.5245 96.142 -0.76589 -0 0 -0 8.8552 6.6914 -14.727 1.3927 2.4532 -3.2346 1.3927 2.4532 -3.2346 1.1605 2.066 -2.7128 -0 0 -0 4.9442 -7.3257 10.54 -2.5622 -14.35 -3.9891 0.051005 12.811 -22.815 -0 0 -0 -1.7956 -8.2157 3.7963 -14.65 -17.285 -0.22602 -8.5973 9.5598 32.373 4.7794 -8.9195 1.7305 4.7794 -8.9195 1.7305 8.8552 6.6914 -14.727 -6.2343 -16.482 -3.9936 -2.5648 13.477 9.4428 0.35136 -5.8426 7.5612 -0.0077832 -4.1463e-05 0.0031604 -0 0 -0 8.8552 6.6914 -14.727 -6.9313 -14.619 2.2752 1.5915 5.1846 7.5477 -1.3559 0.84448 4.3114 -0.016384 0.0067667 0.0030011 -0 0 -0 
-2.4384 96.199 -0.85675 -0 0 -0 9.4891 6.5583 -15.075 1.3413 2.4648 -3.1539 1.3413 2.4648 -3.1539 1.1175 2.0755 -2.6451 -0 0 -0 4.7954 -7.3674 10.565 -2.5882 -14.542 -4.0497 0.060213 13.005 -22.51 -0 0 -0 -1.8672 -8.132 3.5046 -15.086 -17.022 -0.50126 -8.4366 9.4344 32.337 4.775 -9.1077 1.7558 4.775 -9.1077 1.7558 9.4891 6.5583 -15.075 -6.8389 -17.976 -5.1476 -3.421 15.8 9.8707 0.6939 -6.8543 8.7977 0.009392 -0.018388 0.0032574 -0 0 -0 9.4891 6.5583 -15.075 -7.7763 -14.734 1.8801 1.6799 5.1335 7.7973 -1.2433 0.9304 4.6829 -0.020553 -0.012978 0.0024292 -0 0 -0 
-2.354 96.253 -0.97837 -0 0 -0 10.136 6.4515 -15.335 1.2631 2.4767 -3.0662 1.2631 2.4767 -3.0662 1.052 2.0851 -2.5717 -0 0 -0 4.6665 -7.447 10.595 -2.5969 -14.71 -4.1034 0.10218 13.188 -22.183 -0 0 -0 -1.9133 -8.0636 3.2004 -15.578 -16.674 -0.75318 -8.2629 9.3277 32.303 4.8005 -9.3576 1.7809 4.8005 -9.3576 1.7808 10.136 6.4515 -15.335 -7.5373 -19.738 -6.7465 -4.0281 18.026 10.661 0.70698 -7.5093 9.9603 0.02134 -0.014521 0.0038668 -0 0 -0 10.136 6.4515 -15.335 -8.6537 -14.879 1.3757 1.8118 5.0293 8.0267 -1.1664 1.0634 5.0829 -0.0077335 -0.02531 0.0016313 -0 0 -0 
-2.2763 96.299 -1.1313 -0 0 -0 10.775 6.4008 -15.496 1.1553 2.4768 -2.9753 1.1553 2.4768 -2.9753 0.96173 2.0846 -2.4956 -0 0 -0 4.5735 -7.5236 10.605 -2.5569 -14.875 -4.1151 0.17886 13.331 -21.846 -0 0 -0 -1.9178 -7.9938 2.9009 -16.115 -16.263 -0.96887 -8.0894 9.2375 32.267 4.8648 -9.659 1.7974 4.8648 -9.659 1.7974 10.775 6.4008 -15.496 -8.352 -21.686 -8.6687 -4.3854 19.896 11.512 0.49066 -7.6209 11.171 0.017432 0.007963 0.0045909 -0 0 -0 10.775 6.4008 -15.496 -9.502 -15.116 0.90657 1.9803 4.9309 8.1679 -1.1234 1.2389 5.427 0.011472 -0.014617 0.002174 -0 0 -0 
-2.2095 96.334 -1.3137 -0 0 -0 11.371 6.4169 -15.553 1.0173 2.4601 -2.8877 1.0173 2.4601 -2.8877 0.84608 2.07 -2.4224 -0 0 -0 4.5429 -7.5643 10.596 -2.4589 -15.05 -4.0853 0.28834 13.427 -21.508 -0 0 -0 -1.8688 -7.8995 2.6338 -16.671 -15.832 -1.1476 -7.9105 9.1809 32.236 4.9721 -9.9943 1.7927 4.9721 -9.9943 1.7927 11.371 6.4169 -15.553 -9.2688 -23.515 -10.417 -4.3703 21.143 11.41 0.21781 -7.1749 12.891 -0.00051593 0.014248 0.0038307 -0 0 -0 11.371 6.4169 -15.553 -10.278 -15.492 0.6618 2.1968 4.8977 8.11 -1.1153 1.4658 5.6326 0.016938 -0.0024948 0.0028106 -0 0 -0 
-2.1558 96.356 -1.5217 -0 0 -0 11.873 6.4859 -15.498 0.85461 2.4299 -2.8099 0.85461 2.4299 -2.8099 0.7098 2.044 -2.3576 -0 0 -0 4.5982 -7.5621 10.593 -2.3121 -15.213 -4.0269 0.45765 13.474 -21.216 -0 0 -0 -1.7714 -7.7605 2.4244 -17.2 -15.426 -1.2994 -7.7101 9.1903 32.225 5.1277 -10.33 1.7557 5.1277 -10.33 1.7557 11.873 6.4859 -15.498 -10.128 -24.764 -11.142 -3.7488 21.624 9.7236 -0.10353 -6.451 14.878 -0.01658 -0.0014546 0.0032473 -0 0 -0 11.873 6.4859 -15.498 -10.915 -15.981 0.74047 2.4307 4.9538 7.8198 -1.1402 1.7177 5.6431 0.012632 0.0050474 0.0029832 -0 0 -0 
-2.1147 96.363 -1.7479 -0 0 -0 12.237 6.6041 -15.335 0.68112 2.3868 -2.7474 0.68112 2.3868 -2.7474 0.5644 2.0071 -2.3056 -0 0 -0 4.7409 -7.5468 10.646 -2.147 -15.298 -3.9435 0.79606 13.436 -21.049 -0 0 -0 -1.6522 -7.5847 2.2978 -17.651 -15.079 -1.4328 -7.4779 9.3005 32.24 5.3224 -10.605 1.6912 5.3224 -10.605 1.6912 12.237 6.6041 -15.335 -10.674 -25.058 -10.255 -2.514 21.034 7.3541 -0.54482 -5.5781 15.73 -0.020293 -0.0081582 0.0032841 -0 0 -0 12.237 6.6041 -15.335 -11.351 -16.5 1.0061 2.6123 5.0618 7.4396 -1.1745 1.9559 5.476 0.00079643 0.012936 0.0029969 -0 0 -0 
-2.0839 96.353 -1.9825 -0 0 -0 12.433 6.7829 -15.078 0.52205 2.3209 -2.7178 0.52205 2.3209 -2.7178 0.43109 1.9513 -2.2813 -0 0 -0 4.9258 -7.5307 10.812 -1.9887 -15.239 -3.8199 1.4995 13.207 -21.056 -0 0 -0 -1.5508 -7.3945 2.3046 -18 -14.817 -1.5485 -7.2266 9.5337 32.269 5.5163 -10.761 1.631 5.5163 -10.761 1.631 12.433 6.7829 -15.078 -10.715 -24.188 -8.1853 -1.2548 18.998 5.8157 -0.96593 -4.4821 14.625 -0.018598 0.0044714 0.0040068 -0 0 -0 12.433 6.7829 -15.078 -11.556 -16.959 1.3326 2.7174 5.1613 7.0295 -1.2142 2.148 5.221 -0.0080706 0.015879 0.0024789 -0 0 -0 
-2.0593 96.325 -2.2157 -0 0 -0 12.433 7.0102 -14.743 0.4053 2.2306 -2.7472 0.4053 2.2306 -2.7472 0.33324 1.875 -2.3064 -0 0 -0 5.0719 -7.4697 11.076 -1.7964 -15.048 -3.6176 2.757 12.644 -21.175 -0 0 -0 -1.4889 -7.2114 2.4753 -18.244 -14.676 -1.64 -7.0143 9.8733 32.305 5.675 -10.795 1.6095 5.675 -10.795 1.6095 12.433 7.0102 -14.743 -10.195 -22.251 -6.1677 -0.42346 15.618 5.3843 -1.4196 -3.1403 12.638 -0.0099434 0.015201 0.0053576 -0 0 -0 12.433 7.0102 -14.743 -11.539 -17.358 1.7706 2.8093 5.2866 6.4694 -1.2835 2.2656 4.9585 -0.00013936 0.0097355 0.0017216 -0 0 -0 
-2.0356 96.28 -2.44 -0 0 -0 12.209 7.2427 -14.355 0.33212 2.1407 -2.8269 0.33212 2.1407 -2.8269 0.27186 1.7993 -2.3736 -0 0 -0 5.1656 -7.3374 11.325 -1.4937 -14.781 -3.326 4.6672 11.623 -21.254 -0 0 -0 -1.435 -7.0819 2.7132 -18.361 -14.69 -1.6983 -6.952 10.244 32.368 5.8179 -10.778 1.6204 5.8179 -10.778 1.6204 12.209 7.2427 -14.355 -9.271 -19.885 -5.1007 -0.029329 11.906 5.0449 -1.9468 -1.8661 11.639 0.0084919 0.014719 0.005341 -0 0 -0 12.209 7.2427 -14.355 -11.309 -17.742 2.4635 2.9857 5.524 5.6255 -1.4096 2.2962 4.6979 0.012405 -0.0017717 0.0022268 -0 0 -0 
-2.0071 96.22 -2.6492 -0 0 -0 11.756 7.4432 -13.958 0.26123 2.0867 -2.8977 0.26123 2.0867 -2.8977 0.21233 1.7538 -2.4332 -0 0 -0 5.3005 -7.1701 11.409 -1.0252 -14.473 -2.9806 7.227 10.088 -21.178 -0 0 -0 -1.3036 -7.0719 2.8241 -18.312 -14.859 -1.7204 -7.1761 10.531 32.489 6.0084 -10.79 1.6111 6.0085 -10.79 1.6111 11.756 7.4432 -13.958 -8.2753 -18.021 -4.6989 0.18845 9.1978 4.466 -2.4136 -1.0384 11.583 0.025511 0.0015308 0.0039813 -0 0 -0 11.756 7.4432 -13.958 -10.9 -18.082 3.4449 3.316 5.848 4.5546 -1.6031 2.2483 4.3886 0.009666 0.0028254 0.0027796 -0 0 -0 
